# Blender v2.79 (sub 0) OBJ File: ''
# www.blender.org
mtllib Hollowcylinder.mtl
o Cylinder
v 0.123547 -0.415994 -0.798887
v 0.123547 1.584006 -0.798887
v 0.318637 -0.415994 -0.779672
v 0.318637 1.584006 -0.779672
v 0.506230 -0.415994 -0.722766
v 0.506230 1.584006 -0.722766
v 0.679117 -0.415994 -0.630356
v 0.679117 1.584006 -0.630356
v 0.830653 -0.415994 -0.505993
v 0.830653 1.584006 -0.505993
v 0.955016 -0.415994 -0.354457
v 0.955016 1.584006 -0.354457
v 1.047426 -0.415994 -0.181570
v 1.047426 1.584006 -0.181570
v 1.104332 -0.415994 0.006023
v 1.104332 1.584006 0.006023
v 1.123547 -0.415994 0.201113
v 1.123547 1.584006 0.201113
v 1.104332 -0.415994 0.396204
v 1.104332 1.584006 0.396204
v 1.047426 -0.415994 0.583797
v 1.047426 1.584006 0.583797
v 0.955016 -0.415994 0.756683
v 0.955016 1.584006 0.756683
v 0.830653 -0.415994 0.908220
v 0.830653 1.584006 0.908220
v 0.679117 -0.415994 1.032583
v 0.679117 1.584006 1.032583
v 0.506230 -0.415994 1.124993
v 0.506230 1.584006 1.124993
v 0.318637 -0.415994 1.181899
v 0.318637 1.584006 1.181899
v 0.123546 -0.415994 1.201113
v 0.123546 1.584006 1.201113
v -0.071544 -0.415994 1.181898
v -0.071544 1.584006 1.181898
v -0.259137 -0.415994 1.124993
v -0.259137 1.584006 1.124993
v -0.432024 -0.415994 1.032583
v -0.432024 1.584006 1.032583
v -0.583561 -0.415994 0.908220
v -0.583561 1.584006 0.908220
v -0.707923 -0.415994 0.756683
v -0.707923 1.584006 0.756683
v -0.800333 -0.415994 0.583796
v -0.800333 1.584006 0.583796
v -0.857239 -0.415994 0.396203
v -0.857239 1.584006 0.396203
v -0.876453 -0.415994 0.201112
v -0.876453 1.584006 0.201112
v -0.857238 -0.415994 0.006022
v -0.857238 1.584006 0.006022
v -0.800333 -0.415994 -0.181571
v -0.800333 1.584006 -0.181571
v -0.707922 -0.415994 -0.354458
v -0.707922 1.584006 -0.354458
v -0.583559 -0.415994 -0.505994
v -0.583559 1.584006 -0.505994
v -0.432023 -0.415994 -0.630357
v -0.432023 1.584006 -0.630357
v -0.259136 -0.415994 -0.722767
v -0.259136 1.584006 -0.722767
v -0.071542 -0.415994 -0.779672
v -0.071542 1.584006 -0.779672
v 0.123547 -0.415994 -0.592887
v 0.123547 1.584006 -0.592887
v 0.278452 -0.415994 -0.577633
v 0.278452 1.584006 -0.577633
v 0.427400 -0.415994 -0.532452
v 0.427400 1.584006 -0.532452
v 0.564672 -0.415994 -0.459078
v 0.564672 1.584006 -0.459078
v 0.684994 -0.415994 -0.360334
v 0.684994 1.584006 -0.360334
v 0.783738 -0.415994 -0.240012
v 0.783738 1.584006 -0.240012
v 0.857112 -0.415994 -0.102740
v 0.857112 1.584006 -0.102740
v 0.902292 -0.415994 0.046208
v 0.902292 1.584006 0.046208
v 0.917547 -0.415994 0.201113
v 0.917547 1.584006 0.201113
v 0.902293 -0.415994 0.356018
v 0.902293 1.584006 0.356018
v 0.857112 -0.415994 0.504966
v 0.857112 1.584006 0.504966
v 0.783738 -0.415994 0.642238
v 0.783738 1.584006 0.642238
v 0.684994 -0.415994 0.762561
v 0.684994 1.584006 0.762561
v 0.564672 -0.415994 0.861305
v 0.564672 1.584006 0.861305
v 0.427399 -0.415994 0.934678
v 0.427399 1.584006 0.934678
v 0.278451 -0.415994 0.979859
v 0.278451 1.584006 0.979859
v 0.123546 -0.415994 0.995113
v 0.123546 1.584006 0.995113
v -0.031359 -0.415994 0.979859
v -0.031359 1.584006 0.979859
v -0.180307 -0.415994 0.934678
v -0.180307 1.584006 0.934678
v -0.317579 -0.415994 0.861305
v -0.317579 1.584006 0.861305
v -0.437902 -0.415994 0.762560
v -0.437902 1.584006 0.762560
v -0.536646 -0.415994 0.642238
v -0.536646 1.584006 0.642238
v -0.610019 -0.415994 0.504966
v -0.610019 1.584006 0.504966
v -0.655200 -0.415994 0.356017
v -0.655200 1.584006 0.356017
v -0.670460 -0.415994 0.201112
v -0.670460 1.584006 0.201112
v -0.655199 -0.415994 0.046207
v -0.655199 1.584006 0.046207
v -0.610018 -0.415994 -0.102741
v -0.610018 1.584006 -0.102741
v -0.536644 -0.415994 -0.240013
v -0.536644 1.584006 -0.240013
v -0.437900 -0.415994 -0.360335
v -0.437900 1.584006 -0.360335
v -0.317577 -0.415994 -0.459079
v -0.317577 1.584006 -0.459079
v -0.180305 -0.415994 -0.532452
v -0.180305 1.584006 -0.532452
v -0.031357 -0.415994 -0.577633
v -0.031357 1.584006 -0.577633
v 0.780444 -0.415938 0.637535
vn 0.0980 0.0000 -0.9952
vn 0.2903 0.0000 -0.9569
vn 0.4714 0.0000 -0.8819
vn 0.6344 0.0000 -0.7730
vn 0.7730 0.0000 -0.6344
vn 0.8819 0.0000 -0.4714
vn 0.9569 0.0000 -0.2903
vn 0.9952 0.0000 -0.0980
vn 0.9952 0.0000 0.0980
vn 0.9569 0.0000 0.2903
vn 0.8819 0.0000 0.4714
vn 0.7730 0.0000 0.6344
vn 0.6344 0.0000 0.7730
vn 0.4714 0.0000 0.8819
vn 0.2903 0.0000 0.9569
vn 0.0980 0.0000 0.9952
vn -0.0980 0.0000 0.9952
vn -0.2903 0.0000 0.9569
vn -0.4714 0.0000 0.8819
vn -0.6344 0.0000 0.7730
vn -0.7730 0.0000 0.6344
vn -0.8819 0.0000 0.4714
vn -0.9569 0.0000 0.2903
vn -0.9952 0.0000 0.0980
vn -0.9952 0.0000 -0.0980
vn -0.9569 0.0000 -0.2903
vn -0.8819 0.0000 -0.4714
vn -0.7730 0.0000 -0.6344
vn -0.6344 0.0000 -0.7730
vn -0.4714 0.0000 -0.8819
vn -0.2903 0.0000 -0.9569
vn -0.0980 0.0000 -0.9952
vn 0.0000 -1.0000 0.0000
vn 0.0000 1.0000 0.0000
usemtl None
s off
f 1//1 2//1 4//1 3//1
f 3//2 4//2 6//2 5//2
f 5//3 6//3 8//3 7//3
f 7//4 8//4 10//4 9//4
f 9//5 10//5 12//5 11//5
f 11//6 12//6 14//6 13//6
f 13//7 14//7 16//7 15//7
f 15//8 16//8 18//8 17//8
f 17//9 18//9 20//9 19//9
f 19//10 20//10 22//10 21//10
f 21//11 22//11 24//11 23//11
f 23//12 24//12 26//12 25//12
f 25//13 26//13 28//13 27//13
f 27//14 28//14 30//14 29//14
f 29//15 30//15 32//15 31//15
f 31//16 32//16 34//16 33//16
f 33//17 34//17 36//17 35//17
f 35//18 36//18 38//18 37//18
f 37//19 38//19 40//19 39//19
f 39//20 40//20 42//20 41//20
f 41//21 42//21 44//21 43//21
f 43//22 44//22 46//22 45//22
f 45//23 46//23 48//23 47//23
f 47//24 48//24 50//24 49//24
f 49//25 50//25 52//25 51//25
f 51//26 52//26 54//26 53//26
f 53//27 54//27 56//27 55//27
f 55//28 56//28 58//28 57//28
f 57//29 58//29 60//29 59//29
f 59//30 60//30 62//30 61//30
f 61//31 62//31 64//31 63//31
f 63//32 64//32 2//32 1//32
f 65//17 67//17 68//17 66//17
f 67//18 69//18 70//18 68//18
f 69//19 71//19 72//19 70//19
f 71//20 73//20 74//20 72//20
f 73//21 75//21 76//21 74//21
f 75//22 77//22 78//22 76//22
f 77//23 79//23 80//23 78//23
f 79//24 81//24 82//24 80//24
f 81//25 83//25 84//25 82//25
f 83//26 85//26 86//26 84//26
f 85//27 87//27 88//27 86//27
f 87//28 89//28 90//28 88//28
f 89//29 91//29 92//29 90//29
f 91//30 93//30 94//30 92//30
f 93//31 95//31 96//31 94//31
f 95//32 97//32 98//32 96//32
f 97//1 99//1 100//1 98//1
f 99//2 101//2 102//2 100//2
f 101//3 103//3 104//3 102//3
f 103//4 105//4 106//4 104//4
f 105//5 107//5 108//5 106//5
f 107//6 109//6 110//6 108//6
f 109//7 111//7 112//7 110//7
f 111//8 113//8 114//8 112//8
f 113//9 115//9 116//9 114//9
f 115//10 117//10 118//10 116//10
f 117//11 119//11 120//11 118//11
f 119//12 121//12 122//12 120//12
f 121//13 123//13 124//13 122//13
f 123//14 125//14 126//14 124//14
f 125//15 127//15 128//15 126//15
f 127//16 65//16 66//16 128//16
f 1//33 3//33 67//33 65//33
f 4//34 2//34 66//34 68//34
f 3//33 5//33 69//33 67//33
f 6//34 4//34 68//34 70//34
f 5//33 7//33 71//33 69//33
f 8//34 6//34 70//34 72//34
f 7//33 9//33 73//33 71//33
f 10//34 8//34 72//34 74//34
f 9//33 11//33 75//33 73//33
f 12//34 10//34 74//34 76//34
f 11//33 13//33 77//33 75//33
f 14//34 12//34 76//34 78//34
f 13//33 15//33 79//33 77//33
f 16//34 14//34 78//34 80//34
f 15//33 17//33 81//33 79//33
f 18//34 16//34 80//34 82//34
f 17//33 19//33 83//33 81//33
f 20//34 18//34 82//34 84//34
f 19//33 21//33 85//33 83//33
f 22//34 20//34 84//34 86//34
f 21//33 23//33 87//33 85//33
f 24//34 22//34 86//34 88//34
f 23//33 25//33 89//33 87//33
f 26//34 24//34 88//34 90//34
f 25//33 27//33 91//33 89//33
f 28//34 26//34 90//34 92//34
f 27//33 29//33 93//33 91//33
f 30//34 28//34 92//34 94//34
f 29//33 31//33 95//33 93//33
f 32//34 30//34 94//34 96//34
f 31//33 33//33 97//33 95//33
f 34//34 32//34 96//34 98//34
f 33//33 35//33 99//33 97//33
f 36//34 34//34 98//34 100//34
f 35//33 37//33 101//33 99//33
f 38//34 36//34 100//34 102//34
f 37//33 39//33 103//33 101//33
f 40//34 38//34 102//34 104//34
f 39//33 41//33 105//33 103//33
f 42//34 40//34 104//34 106//34
f 41//33 43//33 107//33 105//33
f 44//34 42//34 106//34 108//34
f 43//33 45//33 109//33 107//33
f 46//34 44//34 108//34 110//34
f 45//33 47//33 111//33 109//33
f 48//34 46//34 110//34 112//34
f 47//33 49//33 113//33 111//33
f 50//34 48//34 112//34 114//34
f 49//33 51//33 115//33 113//33
f 52//34 50//34 114//34 116//34
f 51//33 53//33 117//33 115//33
f 54//34 52//34 116//34 118//34
f 53//33 55//33 119//33 117//33
f 56//34 54//34 118//34 120//34
f 55//33 57//33 121//33 119//33
f 58//34 56//34 120//34 122//34
f 57//33 59//33 123//33 121//33
f 60//34 58//34 122//34 124//34
f 59//33 61//33 125//33 123//33
f 62//34 60//34 124//34 126//34
f 61//33 63//33 127//33 125//33
f 64//34 62//34 126//34 128//34
f 63//33 1//33 65//33 127//33
f 2//34 64//34 128//34 66//34
